<svg xmlns="http://www.w3.org/2000/svg" width="124.281" height="125.998" viewBox="0 0 124.281 125.998"><path d="M116.085,51.561a31.375,31.375,0,0,0-2.695-25.775A31.774,31.774,0,0,0,79.206,10.563,31.387,31.387,0,0,0,55.535,0,31.742,31.742,0,0,0,25.257,21.99,31.4,31.4,0,0,0,4.282,37.214,31.773,31.773,0,0,0,8.188,74.432a31.4,31.4,0,0,0,2.7,25.748,31.774,31.774,0,0,0,34.211,15.256A31.393,31.393,0,0,0,68.737,126a31.741,31.741,0,0,0,30.278-21.989,31.389,31.389,0,0,0,20.97-15.224A31.729,31.729,0,0,0,116.085,51.561Zm-47.348,66.22A23.519,23.519,0,0,1,53.629,112.3c.186-.1.548-.285.756-.422L79.475,97.4a4.07,4.07,0,0,0,2.06-3.566V58.453l10.6,6.119a.367.367,0,0,1,.208.3V94.148a23.633,23.633,0,0,1-23.605,23.633ZM18.015,96.12A23.556,23.556,0,0,1,15.194,80.3c.186.115.515.312.745.444l25.1,14.49a4.076,4.076,0,0,0,4.12,0L75.771,77.528V89.766a.367.367,0,0,1-.148.329L50.26,104.732a23.632,23.632,0,0,1-32.244-8.639ZM11.442,41.339A23.512,23.512,0,0,1,23.729,30.985V60.808a4.081,4.081,0,0,0,2.06,3.566L56.412,82.058,45.773,88.2a.372.372,0,0,1-.356.033L20.059,73.589a23.627,23.627,0,0,1-8.639-32.25Zm87.1,20.269L67.921,43.925,78.51,37.8a.378.378,0,0,1,.356-.033L104.225,52.41a23.611,23.611,0,0,1-3.649,42.6V65.191a4.075,4.075,0,0,0-2.049-3.583ZM109.1,45.722c-.186-.115-.515-.312-.745-.444l-25.1-14.49a4.075,4.075,0,0,0-4.119,0L48.517,48.466V36.234a.4.4,0,0,1,.154-.329L74.029,21.267a23.61,23.61,0,0,1,35.06,24.46ZM42.738,67.546,32.133,61.427a.4.4,0,0,1-.2-.3V31.851A23.605,23.605,0,0,1,70.644,13.7c-.186.1-.52.285-.756.422L44.8,28.6a4.081,4.081,0,0,0-2.06,3.566ZM48.5,55.127l13.64-7.877,13.635,7.877V70.872L62.131,78.749,48.49,70.872Z" fill="#33d19b"/></svg>